<?xml version="1.0" standalone="no"?>
<!DOCTYPE svg PUBLIC "-//W3C//DTD SVG 20010904//EN"
 "http://www.w3.org/TR/2001/REC-SVG-20010904/DTD/svg10.dtd">
<svg version="1.0" xmlns="http://www.w3.org/2000/svg"
 viewBox="0 0 512 512"
 preserveAspectRatio="xMidYMid meet">

<g transform="translate(0,512) scale(0.1,-0.1)"
fill="currentColor" stroke="none">
<path d="M771 5107 c-45 -26 -50 -51 -51 -230 l0 -169 29 -29 c60 -60 153 -26
167 60 l7 41 1967 0 1967 0 7 -41 c13 -84 100 -119 163 -65 l28 24 3 167 c4
185 -2 211 -49 239 -62 37 -136 -5 -146 -83 l-6 -41 -1967 0 -1968 0 -6 44
c-4 26 -16 52 -30 65 -29 27 -83 36 -115 18z"/>
<path d="M758 4434 c-62 -33 -58 132 -58 -2209 0 -1996 1 -2139 17 -2166 37
-63 -78 -59 1710 -59 1530 0 1630 1 1663 18 71 35 70 22 70 635 l0 547 429 0
c424 0 429 0 456 22 58 45 55 -44 55 1603 0 1647 3 1558 -55 1603 l-28 22
-2116 0 c-1852 -1 -2119 -3 -2143 -16z m4102 -1609 l0 -1384 -435 -3 -435 -3
-32 -33 -33 -32 -5 -563 -5 -562 -1487 -3 -1488 -2 0 1985 0 1985 1960 0 1960
0 0 -1385z"/>
<path d="M3303 3619 c-71 -35 -113 -97 -127 -186 l-6 -43 79 0 78 0 7 39 c12
74 92 106 141 56 52 -51 26 -116 -86 -216 -114 -100 -187 -176 -205 -212 -9
-16 -18 -53 -21 -83 l-6 -54 252 0 252 0 -3 73 -3 72 -132 5 -133 5 85 75
c142 124 176 178 177 274 0 96 -43 167 -124 201 -56 23 -173 20 -225 -6z"/>
<path d="M2224 2759 c-51 -6 -137 -42 -181 -75 -23 -16 -23 -16 -23 20 l0 36
-130 0 -130 0 0 -550 0 -550 130 0 130 0 0 384 0 383 54 51 c62 59 111 82 173
82 55 0 78 -12 100 -53 16 -29 18 -73 21 -439 l3 -408 125 0 124 0 0 380 0
381 49 49 c65 65 117 90 184 90 45 0 59 -4 79 -25 14 -14 28 -39 32 -56 3 -18
6 -209 6 -425 l0 -394 130 0 130 0 0 378 c0 211 -5 406 -11 442 -10 66 -53
169 -86 205 -55 61 -143 96 -249 96 -102 1 -180 -29 -253 -97 l-56 -51 -42 47
c-23 26 -63 57 -89 69 -55 26 -149 39 -220 30z"/>
<path d="M74 4412 c-32 -26 -47 -60 -40 -96 8 -44 42 -74 94 -82 l42 -7 0
-2003 0 -2004 -30 0 c-45 0 -77 -19 -95 -57 -20 -42 -13 -82 21 -114 24 -23
34 -24 172 -27 80 -2 161 -1 180 3 51 9 82 45 82 94 0 55 -32 90 -88 98 l-42
6 0 2002 0 2002 41 7 c86 14 120 107 60 167 l-29 29 -174 0 c-149 0 -176 -3
-194 -18z"/>
</g>
</svg>
